<?xml version="1.0" encoding="utf-8"?>
<!-- Generator: Adobe Illustrator 27.3.1, SVG Export Plug-In . SVG Version: 6.00 Build 0)  -->
<svg version="1.1" id="_x30_" xmlns="http://www.w3.org/2000/svg" xmlns:xlink="http://www.w3.org/1999/xlink" x="0px" y="0px"
	 viewBox="0 0 400 400" style="enable-background:new 0 0 400 400;" xml:space="preserve">
<style type="text/css">
	.st0{fill:none;stroke:#000000;stroke-width:0.7087;stroke-linecap:round;stroke-linejoin:round;stroke-miterlimit:10;}
	.st1{fill:url(#SVGID_1_);}
	.st2{fill:#FFFFFF;}
</style>
<g id="CIRCLE">
	<circle class="st0" cx="200" cy="200" r="200"/>
</g>
<g id="CIRCLE_00000160868582593843073010000010196942588164746880_">
	
		<radialGradient id="SVGID_1_" cx="200.625" cy="233.1155" r="365.1091" fx="201.4761" fy="581.7694" gradientTransform="matrix(1 0 0 -1.0193 0 404.4975)" gradientUnits="userSpaceOnUse">
		<stop  offset="0" style="stop-color:#FFFFFF"/>
		<stop  offset="0.253" style="stop-color:#D0D3E8"/>
		<stop  offset="0.3158" style="stop-color:#C8CCE4"/>
		<stop  offset="0.4116" style="stop-color:#B3B8DA"/>
		<stop  offset="0.5284" style="stop-color:#9198C9"/>
		<stop  offset="0.6479" style="stop-color:#6670B4"/>
	</radialGradient>
	<circle class="st1" cx="199.5" cy="199.5" r="200"/>
</g>
<g id="LWPOLYLINE">
	<path class="st2" d="M321.1,194.8L215.6,84.2c-8.2-8.6-21.8-8.9-30.5-0.7c-0.2,0.2-0.5,0.5-0.7,0.7L78.9,194.8
		c-1.2,1.2-1.1,3.2,0.1,4.4c0.6,0.5,1.3,0.9,2.1,0.9h42v91.4c0,1.7,1.4,3.1,3.1,3.1H184c1.7,0,3.1-1.4,3.1-3.1v-80
		c0-1.7,1.4-3.1,3.1-3.1h43.1c1.7,0,3.1,1.4,3.1,3.1v80c0,1.7,1.4,3.1,3.1,3.1h34.5c1.7,0,3.1-1.4,3.1-3.1V200h42
		c1.7,0,3.1-1.4,3.1-3.1C322,196.1,321.7,195.4,321.1,194.8z"/>
</g>
</svg>
