<?xml version="1.0" encoding="utf-8"?>
<!-- Generator: Adobe Illustrator 27.3.1, SVG Export Plug-In . SVG Version: 6.00 Build 0)  -->
<svg version="1.1" id="_x30_" xmlns="http://www.w3.org/2000/svg" xmlns:xlink="http://www.w3.org/1999/xlink" x="0px" y="0px"
	 viewBox="0 0 400 400" style="enable-background:new 0 0 400 400;" xml:space="preserve">
<style type="text/css">
	.st0{fill:#365FAA;}
	.st1{fill:#FFFCFD;}
	.st2{fill:#EEE974;}
	.st3{fill:#FFFFFF;}
	.st4{fill:none;}
</style>
<g>
	<path class="st0" d="M100.5,85.4V31.3c0-0.6,0-1.3,0-1.9c1-17.2,15.7-30.3,32.9-29.3h128.3c19.6,1.2,35.5,16.5,37.3,36.1v125.2
		c-1.6,18.7-16.9,33.4-35.7,34.2H133.5c-23.8,1.1-43.4,19.2-46.2,42.8v58.8H39.4c-18.8-3.2-33.9-17.4-38.2-36v-125
		c1.8-20.1,18-35.9,38.2-37.2h160.2V85.4H100.5z"/>
</g>
<g id="CIRCLE">
	<path class="st1" d="M163.2,45.1c-0.5-26.7-40.2-26.7-40.7,0C123,71.8,162.8,71.8,163.2,45.1z"/>
</g>
<g id="LWPOLYLINE_00000095332972670142099010000007031632696882185384_">
	<path class="st2" d="M299.5,314.6v54.1c0,0.6,0,1.3,0,1.9c-1,17.2-15.7,30.3-32.9,29.3H138.3c-19.6-1.2-35.5-16.5-37.3-36.1V238.6
		c1.6-18.7,16.9-33.4,35.7-34.2h129.8c23.8-1.1,43.4-19.2,46.2-42.8v-58.8h47.8c18.8,3.2,33.9,17.4,38.2,36v125
		c-1.8,20.1-18,35.9-38.2,37.1H200.4v13.6H299.5z"/>
</g>
<g id="CIRCLE_00000178898515254817665470000002363167732022408590_">
	<circle class="st3" cx="257.1" cy="354.9" r="20.3"/>
</g>
<g id="LWPOLYLINE_00000018208649895459358570000005546183749366403516_">
	<path class="st4" d="M2.1,130.8c52.5,33.4,119.1,35.5,173.6,5.6c38.9-17.3,82.9-19.3,123.2-5.6"/>
</g>
<g id="LWPOLYLINE_00000151519787932711957510000012064124116977505467_">
	<path class="st4" d="M101.1,238c44.3,23.6,96,29,144.2,14.8c48.8-18.6,101.4-24.9,153.3-18.5"/>
</g>
</svg>
